<?xml version="1.0" encoding="UTF-8"?>
<svg width="71px" height="71px" viewBox="0 0 71 71" version="1.1" xmlns="http://www.w3.org/2000/svg" xmlns:xlink="http://www.w3.org/1999/xlink">
    <title>Add-2</title>
    <g id="Page-1" stroke="none" stroke-width="1" fill="none" fill-rule="evenodd">
        <g id="3c_Likes" transform="translate(-508.000000, -2402.000000)" fill="#81828E">
            <g id="Add-2" transform="translate(508.000000, 2402.000000)">
                <path d="M35.5,0 C15.8938914,4.58623039e-14 0,15.8938914 0,35.5 C0,55.1061086 15.8938914,71 35.5,71 C55.1061086,71 71,55.1061086 71,35.5 C71,15.8938914 55.1061086,4.58623039e-14 35.5,4.58623039e-14 L35.5,0 Z M35.5,66.1590909 C18.5674516,66.1590909 4.84090909,52.4325484 4.84090909,35.5 C4.84090909,18.5674516 18.5674516,4.84090909 35.5,4.84090909 C52.4325484,4.84090909 66.1590909,18.5674516 66.1590909,35.5 C66.1590909,43.6312965 62.928946,51.4295562 57.1792511,57.1792511 C51.4295562,62.928946 43.6312965,66.1590909 35.5,66.1590909 Z" id="Shape"></path>
                <path d="M48.5833333,34.0833333 L38.9166667,34.0833333 L38.9166667,24.4166667 C38.9166667,23.0819785 37.8346881,22 36.5,22 C35.1653119,22 34.0833333,23.0819785 34.0833333,24.4166667 L34.0833333,34.0833333 L24.4166667,34.0833333 C23.0819785,34.0833333 22,35.1653119 22,36.5 C22,37.8346881 23.0819785,38.9166667 24.4166667,38.9166667 L34.0833333,38.9166667 L34.0833333,48.5833333 C34.0833333,49.9180215 35.1653119,51 36.5,51 C37.8346881,51 38.9166667,49.9180215 38.9166667,48.5833333 L38.9166667,38.9166667 L48.5833333,38.9166667 C49.9180215,38.9166667 51,37.8346881 51,36.5 C51,35.1653119 49.9180215,34.0833333 48.5833333,34.0833333 L48.5833333,34.0833333 Z" id="Shape"></path>
            </g>
        </g>
    </g>
</svg>