<svg width="24" height="24" viewBox="0 0 24 24" fill="none" xmlns="http://www.w3.org/2000/svg">
<path d="M14 3.06698C13.3838 3.02105 12.7182 3 12 3C5 3 3 5 3 12C3 19 5 21 12 21C19 21 21 19 21 12.5294C21 11.6051 20.9699 10.7642 20.904 10" stroke="#0A0C10" stroke-width="1.5" stroke-linecap="round" stroke-linejoin="round"/>
<path d="M19 7C20.1046 7 21 6.10457 21 5C21 3.89543 20.1046 3 19 3C17.8954 3 17 3.89543 17 5C17 6.10457 17.8954 7 19 7Z" stroke="#0A0C10" stroke-width="1.5" stroke-linecap="round" stroke-linejoin="round"/>
<path d="M7 15C8.8 12.4286 9.43509 10.9947 10.6818 11.3333C11.6023 11.5833 11.6805 12.7868 12.7273 13C14.1299 13.2857 14.65 11.1429 16 9" stroke="#0A0C10" stroke-width="1.5" stroke-linecap="round" stroke-linejoin="round"/>
</svg>
