<svg width="24" height="24" viewBox="0 0 24 24" fill="none" xmlns="http://www.w3.org/2000/svg">
<path d="M18 17.9167C18 19.1912 15 20 12 20C8.5 20 6 19.1912 6 17.9167C6 16.0577 9 15 12 15C15 15 18 16.25 18 17.9167Z" stroke="#0A0C10" stroke-width="1.5" stroke-linecap="round" stroke-linejoin="round"/>
<path d="M12 12C14.2091 12 16 10.2091 16 8C16 5.79086 14.2091 4 12 4C9.79086 4 8 5.79086 8 8C8 10.2091 9.79086 12 12 12Z" stroke="#0A0C10" stroke-width="1.5" stroke-linecap="round" stroke-linejoin="round"/>
<path d="M20.5 17.334C21.5449 17.0378 22 16.547 22 15.9208C22 14.7108 20.261 13.7654 18 13.5475" stroke="#0A0C10" stroke-width="1.5" stroke-linecap="round" stroke-linejoin="round"/>
<path d="M18 11C19.3807 11 20.5 9.88071 20.5 8.5C20.5 7.11929 19.3807 6 18 6" stroke="#0A0C10" stroke-width="1.5" stroke-linecap="round" stroke-linejoin="round"/>
<path d="M3.5 17.334C2.4551 17.0378 2 16.547 2 15.9208C2 14.7108 3.73896 13.7654 6 13.5475" stroke="#0A0C10" stroke-width="1.5" stroke-linecap="round" stroke-linejoin="round"/>
<path d="M6 11C4.61929 11 3.5 9.88071 3.5 8.5C3.5 7.11929 4.61929 6 6 6" stroke="#0A0C10" stroke-width="1.5" stroke-linecap="round" stroke-linejoin="round"/>
</svg>
