<svg width="24" height="24" viewBox="0 0 24 24" fill="none" xmlns="http://www.w3.org/2000/svg">
<path d="M10 5.04705C10.0632 4.65125 10.1576 4.30403 10.2877 4C10.9688 2.40804 12.5 2 15.9208 2C21 2 22 4 22 8.0941C22 11 21.777 13.2005 20 13.7606C19.6999 13.8552 19.3555 13.9317 18.9604 14" stroke="#0A0C10" stroke-width="1.5" stroke-linecap="round" stroke-linejoin="round"/>
<path d="M9 22C14 22 16 20.5 16 15C16 9.5 14 8 9 8C4 8 2 9.16667 2 15C2 20.8333 4 22 9 22Z" stroke="#0A0C10" stroke-width="1.5" stroke-linecap="round" stroke-linejoin="round"/>
<path d="M7 9C7 9 7.60457 11.3954 6.5 12.5C5.39543 13.6046 3 13 3 13" stroke="#0A0C10" stroke-width="1.5" stroke-linecap="round" stroke-linejoin="round"/>
</svg>
