<svg xmlns="http://www.w3.org/2000/svg" width="39" height="43.511" viewBox="0 0 39 43.511">
  <path fill="rgb(127,128,139)" fill-rule="evenodd" d="M37.5 6.51074219h-8.57995605C27.4395752 2.59252929 23.68847656 0 19.5 0s-7.9395752 2.5925293-9.42004395 6.51074219H1.5c-.82843018 0-1.5.67163086-1.5 1.5s.67156982 1.5 1.5 1.5h1v31c0 1.65673828 1.34313965 3 3 3h27c1.65686035 0 3-1.34326172 3-3v-31h2c.82836914 0 1.5-.67163086 1.5-1.5s-.67163086-1.5-1.5-1.5zm-18-3.50024414c2.72998047 0 5.09997559 1 6.27001953 3.5H13.22998047c1.17004394-2.51000977 3.54003906-3.5 6.27001953-3.5zm9 37.5h4v-31h-27v31h4v-17c0-.82836914.67163086-1.5 1.5-1.5s1.5.67163086 1.5 1.5v17h5v-23c0-.82836914.67163086-1.5 1.5-1.5s1.5.67163086 1.5 1.5v23h5v-17c0-.82836914.67163086-1.5 1.5-1.5s1.5.67163086 1.5 1.5v17z"/>
</svg>
