<svg xmlns="http://www.w3.org/2000/svg" xmlns:xlink="http://www.w3.org/1999/xlink" width="80" height="80" viewBox="0 0 80 80">
  <defs>
    <clipPath id="clip-path">
      <rect id="basic_Color_Background_Mask_" data-name="basic / Color (Background/Mask)" width="80" height="80" fill="none"/>
    </clipPath>
  </defs>
  <g id="basic_Color" data-name="basic / Color" opacity="0.78">
    <g id="basic_Color-2" data-name="basic / Color">
      <rect id="basic_Color_Background_Mask_2" data-name="basic / Color (Background/Mask)" width="80" height="80" fill="none"/>
      <g id="basic_Color-3" data-name="basic / Color" clip-path="url(#clip-path)">
        <path id="basic_Color-4" data-name="basic / Color" d="M29.166,66.666H9.723a6.953,6.953,0,0,1-6.945-6.945V27.39A6.589,6.589,0,0,1,.8,18.861C3.811,13.5,6.863,8.218,9.873,3.156A6.586,6.586,0,0,1,15.552,0a6.881,6.881,0,0,1,3.933,1.285l.081.047c1.374.8,14.641,8.7,25.3,15.041L54.321,22l.432.255c7.394,4.369,9.057,5.363,9.15,5.427a6.544,6.544,0,0,1,1.944,8.511c-2.945,5.255-6,10.54-9.069,15.708a6.609,6.609,0,0,1-5.6,3.17,5.978,5.978,0,0,1-1.334-.149c-.387.232-2.521,1.6-5.223,3.333-4.809,3.085-11.383,7.3-12.144,7.689A6.591,6.591,0,0,1,29.166,66.666ZM8.334,36.768V59.721A1.391,1.391,0,0,0,9.723,61.11H22.467C17.624,52.932,12.87,44.741,8.334,36.768Zm4.526-3.325h0c1.328,2.29,15.721,27.108,15.84,27.273a1,1,0,0,0,.794.39,1.01,1.01,0,0,0,.469-.117c.449-.254,13.979-8.945,14.115-9.033-1.048-.618-8.621-5.129-16.639-9.905-5.494-3.273-11.094-6.609-14.645-8.722l.022.038.032.056.011.019Zm1.58-27.12c-2.692,4.347-8.719,15.093-8.8,15.289A1.04,1.04,0,0,0,6.054,22.9c.444.265,44.513,26.521,44.934,26.586a1.09,1.09,0,0,0,.161.012,1.034,1.034,0,0,0,.886-.5C54.748,44.446,61,33.478,61.014,33.444a1.052,1.052,0,0,0-.417-1.29C60.174,31.9,16.188,5.761,15.9,5.637a1.064,1.064,0,0,0-.408-.083,1.047,1.047,0,0,0-.87.473l-.012.013,0,0-.024.038-.026.041-.041.066-.009.015-.011.017-.05.082-.017.026Zm4.511,18.3a5.555,5.555,0,1,1,5.556-5.556A5.562,5.562,0,0,1,18.951,24.624Z" transform="translate(6.667 6.667)" fill="#2e3a59"/>
      </g>
    </g>
  </g>
</svg>
