<?xml version="1.0" encoding="UTF-8"?>
<svg width="78px" height="78px" viewBox="0 0 78 78" version="1.1" xmlns="http://www.w3.org/2000/svg" xmlns:xlink="http://www.w3.org/1999/xlink">
    <title>Settings</title>
    <g id="Page-1" stroke="none" stroke-width="1" fill="none" fill-rule="evenodd">
        <g id="4b_Menu" transform="translate(-59.000000, -1368.000000)" fill="#737880">
            <g id="Settings" transform="translate(59.000000, 1368.000000)">
                <path d="M39,25 C31.2680135,25 25,31.2680135 25,39 C25,46.7319865 31.2680135,53 39,53 C46.7319865,53 53,46.7319865 53,39 C53,31.2680135 46.7319865,25 39,25 Z M39,47.75 C34.1675084,47.75 30.25,43.8324916 30.25,39 C30.25,34.1675084 34.1675084,30.25 39,30.25 C43.8324916,30.25 47.75,34.1675084 47.75,39 C47.75,43.8324916 43.8324916,47.75 39,47.75 Z" id="Shape"></path>
                <path d="M72.6817906,28.3636364 L70.909064,28.3636364 C70.426217,26.8396502 69.8337622,25.3525879 69.1363374,23.9140909 L70.3595188,22.6909091 C72.4332783,20.6145665 72.4332783,17.2508881 70.3595188,15.1745455 L62.843158,7.65818182 C60.7668162,5.5844215 57.403139,5.5844215 55.3267972,7.65818182 L54.0681613,8.86363636 C52.6296399,8.166268 51.1425823,7.57381456 49.6186175,7.09090909 L49.6186175,5.31818182 C49.6186175,2.3810311 47.2375873,0 44.3004377,0 L33.6640781,0 C30.7269285,0 28.3458983,2.3810311 28.3458983,5.31818182 L28.3458983,7.09090909 C26.8219336,7.57381456 25.334876,8.166268 23.8963546,8.86363636 L22.6731732,7.64045455 C20.5968314,5.56669423 17.2331542,5.56669423 15.1568124,7.64045455 L7.64045165,15.1568182 C5.56669212,17.2331608 5.56669212,20.5968392 7.64045165,22.6731818 L8.863633,23.8963636 C8.16620824,25.3348606 7.57375337,26.8219229 7.0909064,28.3459091 L5.3181798,28.3459091 C2.3810302,28.3459091 0,30.7269402 0,33.6640909 L0,44.3004545 C-1.00767841e-13,47.2376053 2.3810302,49.6186364 5.3181798,49.6186364 L7.0909064,49.6186364 C7.57375337,51.1426225 8.16620824,52.6296848 8.863633,54.0681818 L7.64045165,55.2913636 C5.56669212,57.3677062 5.56669212,60.7313847 7.64045165,62.8077273 L15.1568124,70.3240909 C17.2331542,72.3978512 20.5968314,72.3978512 22.6731732,70.3240909 L23.9318091,69.1363636 C25.3703305,69.833732 26.8573881,70.4261854 28.3813529,70.9090909 L28.3813529,72.6818182 C28.3813529,75.6189689 30.7623831,78 33.6995327,78 L44.3358923,78 C47.2730419,78 49.6540721,75.6189689 49.6540721,72.6818182 L49.6540721,70.9090909 C51.1780368,70.4261854 52.6650944,69.833732 54.1036158,69.1363636 L55.3267972,70.3595455 C57.403139,72.4333058 60.7668162,72.4333058 62.843158,70.3595455 L70.3595188,62.8431818 C72.4332783,60.7668392 72.4332783,57.4031608 70.3595188,55.3268182 L69.1363374,54.1036364 C69.8337622,52.6651394 70.426217,51.1780771 70.909064,49.6540909 L72.6817906,49.6540909 C75.6189402,49.6540909 77.9999704,47.2730598 77.9999704,44.3359091 L77.9999704,33.6995455 C78.0046822,32.286007 77.4464564,30.928748 76.4485931,29.9275581 C75.4507297,28.9263681 74.0953364,28.3636285 72.6817906,28.3636364 L72.6817906,28.3636364 Z M72.6817906,44.3181818 L66.8495201,44.3181818 C66.130723,48.1281284 64.634114,51.748958 62.4531581,54.9545455 L66.5658838,59.0672727 L59.0495231,66.5836364 L54.9367973,62.4709091 C51.7314537,64.6523155 48.1105286,66.1489651 44.3004377,66.8672727 L44.3004377,72.6818182 L33.6640781,72.6818182 L33.6640781,66.8495455 C29.8539873,66.1312378 26.2330622,64.6345882 23.0277185,62.4531818 L18.9149928,66.5659091 L11.398632,59.0495455 L15.5113578,54.9368182 C13.3304019,51.7312307 11.8337929,48.1104012 11.1149958,44.3004545 L5.3181798,44.3004545 L5.3181798,33.6640909 L11.1504503,33.6640909 C11.8692474,29.8541443 13.3658564,26.2333147 15.5468123,23.0277273 L11.4340866,18.915 L18.9504474,11.3986364 L23.0631731,15.5113636 C26.2687593,13.3304069 29.8895875,11.8337974 33.6995327,11.115 L33.6995327,5.31818182 L44.3358923,5.31818182 L44.3358923,11.1504545 C48.1458375,11.8692519 51.7666657,13.3658615 54.9722519,15.5468182 L59.0849776,11.4340909 L66.6013384,18.9504545 L62.4531581,23.0454545 C64.634114,26.251042 66.130723,29.8718716 66.8495201,33.6818182 L72.6817906,33.6818182 L72.6817906,44.3181818 Z" id="Shape"></path>
            </g>
        </g>
    </g>
</svg>