<?xml version="1.0" encoding="UTF-8"?>
<svg width="68px" height="52px" viewBox="0 0 68 52" version="1.1" xmlns="http://www.w3.org/2000/svg" xmlns:xlink="http://www.w3.org/1999/xlink">
    <title>Mail</title>
    <g id="Page-1" stroke="none" stroke-width="1" fill="none" fill-rule="evenodd">
        <g id="4b_Menu" transform="translate(-62.000000, -830.000000)" fill="#737880">
            <g id="Mail" transform="translate(62.000000, 830.000000)">
                <path d="M63.3636364,0 L4.63636364,0 C2.07577071,0 0,2.05422291 0,4.58823529 L0,47.4117647 C0,49.9457771 2.07577071,52 4.63636364,52 L63.3636364,52 C65.9242293,52 68,49.9457771 68,47.4117647 L68,4.58823529 C68,2.05422291 65.9242293,0 63.3636364,0 Z M63.3636364,44.1694118 L51.0927273,32.0258824 C50.1793335,31.1836082 48.75597,31.2084611 47.873169,32.082098 C46.990368,32.955735 46.9652544,34.3643231 47.8163636,35.2682353 L60.0872727,47.4117647 L7.91272727,47.4117647 L20.1836364,35.2682353 C21.0347456,34.3643231 21.009632,32.955735 20.126831,32.082098 C19.24403,31.2084611 17.8206665,31.1836082 16.9072727,32.0258824 L4.63636364,44.1694118 L4.63636364,14.7282353 L32.4545455,35.4823529 C33.2787879,36.0941176 34.4121212,36.0941176 35.2363636,35.4823529 L63.3327273,14.7129412 L63.3636364,44.1694118 Z M63.3636364,4.58823529 L63.3636364,8.99294118 L33.8918182,30.7870588 L4.63636364,8.99294118 L4.63636364,4.58823529 L63.3636364,4.58823529 Z" id="Shape"></path>
            </g>
        </g>
    </g>
</svg>