<svg width="24" height="24" viewBox="0 0 24 24" fill="none" xmlns="http://www.w3.org/2000/svg">
<path d="M16 17.9167C16 19.1912 13 20 10 20C6.5 20 4 19.1912 4 17.9167C4 16.0577 7 15 10 15C13 15 16 16.25 16 17.9167Z" stroke="#0A0C10" stroke-width="1.5" stroke-linecap="round" stroke-linejoin="round"/>
<path d="M10 12C12.2091 12 14 10.2091 14 8C14 5.79086 12.2091 4 10 4C7.79086 4 6 5.79086 6 8C6 10.2091 7.79086 12 10 12Z" stroke="#0A0C10" stroke-width="1.5" stroke-linecap="round" stroke-linejoin="round"/>
<path d="M19.5 17.334C20.5449 17.0378 21 16.547 21 15.9208C21 14.7108 19.261 13.7654 17 13.5475" stroke="#0A0C10" stroke-width="1.5" stroke-linecap="round" stroke-linejoin="round"/>
<path d="M17 11C18.3807 11 19.5 9.88071 19.5 8.5C19.5 7.11929 18.3807 6 17 6" stroke="#0A0C10" stroke-width="1.5" stroke-linecap="round" stroke-linejoin="round"/>
</svg>
