<svg xmlns="http://www.w3.org/2000/svg" width="39.388" height="39.3" viewBox="0 0 39.388 39.3">
  <g>
    <path fill="rgb(251,187,0)" fill-rule="evenodd" d="M8.72926379 23.74948125L7.3582147 28.85633203l-5.01115285.10577227C.84946268 26.19060996 0 23.01966797 0 19.65c0-3.2584459.79422684-6.33121465 2.20204853-9.03685078h.00107702l4.46133309.81608906 1.95433346 4.42462734C8.2097545 17.04368848 7.98681094 18.32093848 7.98681094 19.65c.00015386 1.44243281.26202408 2.82445723.74245285 4.09948125z"/>
    <path fill="rgb(81,142,248)" fill-rule="evenodd" d="M39.04412675 15.97913437c.22617463 1.18867149.34410854 2.41625918.34410854 3.67086563 0 1.40681719-.14824439 2.77909336-.43065496 4.10278184-.9587035 4.5043787-3.46377987 8.43760253-6.93402187 11.22099433l-.00107703-.0010746-5.61928566-.28607637-.79530386-4.95356543c2.30267316-1.34740665 4.10222316-3.45602051 5.05015644-5.98027793H20.1270805v-7.77364747H39.04412675z"/>
    <path fill="rgb(40,180,70)" fill-rule="evenodd" d="M32.0224045 34.97270156l.00107703.00107461C28.64847904 37.68048691 24.36116195 39.3 19.69411765 39.3c-7.49999697 0-14.02067316-4.18260996-17.3470558-10.33781895l6.38220194-5.21262304c1.66315285 4.42877226 5.9450079 7.5814459 10.96485386 7.5814459 2.15765983 0 4.17907638-.58197774 5.9136204-1.59794414l6.41466645 5.2396418z"/>
    <path fill="rgb(241,67,54)" fill-rule="evenodd" d="M32.2648114 4.52379844L25.8847635 9.73534687c-1.79516498-1.11958945-3.91720616-1.76635078-6.19064586-1.76635078-5.13347179 0-9.49541112 3.29728536-11.07524862 7.88486953l-6.41574348-5.2407164h-.00107702C5.47973438 4.30787872 12.0826489 0 19.69411765 0c4.77851608 0 9.15991875 1.69834336 12.57069375 4.52379844z"/>
  </g>
</svg>
