<svg xmlns="http://www.w3.org/2000/svg" width="52" height="61" viewBox="0 0 52 61">
  <g>
    <g opacity=".248">
      <path fill="rgb(0,0,0)" fill-rule="evenodd" d="M38.97235107 1.9675293l11.7053833 11.80444336c.93267823 1.20288086 1.39080811 2.71386718 1.2854004 4.23974609v38.7944336c.16235351 1.14501953-.21728516 2.3005371-1.02453614 3.1184082-.80725097.8178711-1.9477539 1.20263672-3.07781982 1.03808593H4.10235596C1.83666992 60.96264648 0 59.1015625 0 56.80615234V4.15649414C0 1.86083984 1.83666992 0 4.10235596 0h31.45135498c1.39569092.02368164 2.68365478.76513672 3.41864013 1.9675293zM35.4169922 4.15649414v.08325195l.08203125.08300782v13.68896484H47.8060913v14.82495117l-7.19281006-4.15649414c-.83868408-.4855957-1.89794922-.3125-2.54345703.41552735L26.67895508 41.8425293l-9.57214356-3.60229493c-.75189209-.27978515-1.59558105-.09033203-2.1605835.48486329L4.08868409 49.72607422V4.15649414h31.3283081zm9.5447998 9.69848633l-5.3057251-5.37573242v5.37573242h5.3057251zM4.10235596 55.55908203v1.24707031H47.8607788V37.68603516l-7.79449463-4.5168457-11.21307373 12.55273437c-.56188965.62792969-1.44396973.8474121-2.22894287.55419922l-9.69525147-3.63012696-12.7446289 12.91308594h-.08203125z"/>
    </g>
    <g opacity=".313">
      <path fill="rgb(0,0,0)" fill-rule="evenodd" d="M23 22c0 3.8659668-3.1340332 7-7 7s-7-3.1340332-7-7 3.1340332-7 7-7 7 3.1340332 7 7zm-4.2000122 0c0-1.54638672-1.25360108-2.80004883-2.7999878-2.80004883-1.54638672 0-2.7999878 1.25366211-2.7999878 2.80004883S14.45361329 24.80004883 16 24.80004883c1.54638672 0 2.7999878-1.25366211 2.7999878-2.80004883z"/>
    </g>
  </g>
</svg>
