<?xml version="1.0" encoding="UTF-8"?>
<svg width="40px" height="37px" viewBox="0 0 40 37" version="1.1" xmlns="http://www.w3.org/2000/svg" xmlns:xlink="http://www.w3.org/1999/xlink">
    <title>Fill 1</title>
    <g id="Page-1" stroke="none" stroke-width="1" fill="none" fill-rule="evenodd">
        <g id="4a_Home" transform="translate(-735.000000, -1521.000000)" fill="#7F808B">
            <g id="Group-5" transform="translate(735.000000, 1514.000000)">
                <path d="M33.6540122,13.3398 C30.6540122,10.3358 25.8140122,10.2138 22.6740122,13.0338 L20.0040122,15.4298 L17.3320122,13.0358 C14.1820122,10.2118 9.35201223,10.3358 6.34401223,13.3438 C3.36401223,16.3238 3.21401223,21.0938 5.96001223,24.2458 L20.0000122,38.3078 L34.0380122,24.2478 C36.7860122,21.0938 36.6380122,16.3298 33.6540122,13.3398 M20.0020122,10.0578 C24.6980122,5.8398 31.9600122,5.9798 36.4860122,10.5138 C41.0100122,15.0498 41.1660122,22.2738 36.9560122,26.9858 L19.9980122,43.9698 L3.04201223,26.9858 C-1.16598777,22.2738 -1.00798777,15.0378 3.51401223,10.5138 C8.04401223,5.9858 15.2900122,5.8338 20.0020122,10.0578" id="Fill-1"></path>
            </g>
        </g>
    </g>
</svg>