<?xml version="1.0" encoding="UTF-8"?>
<svg width="39px" height="36px" viewBox="0 0 39 36" version="1.1" xmlns="http://www.w3.org/2000/svg" xmlns:xlink="http://www.w3.org/1999/xlink">
    <title>Heart</title>
    <g id="Page-1" stroke="none" stroke-width="1" fill="none" fill-rule="evenodd" stroke-linecap="round" stroke-linejoin="round">
        <g id="3c_Likes" transform="translate(-734.000000, -2162.000000)" fill="#D40404" stroke="#D40404" stroke-width="1.5">
            <g id="Heart" transform="translate(735.000000, 2163.000000)">
                <path d="M18.034598,33.5537461 C13.807616,31.0431485 9.8753199,28.0883241 6.30809184,24.7421595 C3.8001678,22.3323949 1.89090545,19.3946189 0.726556598,16.1538685 C-1.36872004,9.86723951 1.07870393,2.67025165 7.92796957,0.540355475 C11.5276675,-0.578027299 15.4590855,0.0611779195 18.4923896,2.25801368 L18.4923896,2.25801368 C21.5268586,0.0638533056 25.4568991,-0.575127941 29.0568096,0.540355475 C35.9060752,2.67025165 38.3711066,9.86723951 36.2758299,16.1538685 C35.1114811,19.3946189 33.2022187,22.3323949 30.6942947,24.7421595 C27.1270666,28.0883241 23.1947706,31.0431485 18.9677885,33.5537461 L18.5099969,33.8285714 L18.034598,33.5537461 Z" id="Path_33961"></path>
            </g>
        </g>
    </g>
</svg>