<svg width="24" height="24" viewBox="0 0 24 24" fill="none" xmlns="http://www.w3.org/2000/svg">
<path d="M3.56394 10.0968C2.86293 9.69757 2.76278 8.69956 3.56394 8.30036C3.56394 8.30036 6.06754 5.90514 10.1735 4.60773C15.4811 2.81132 19.7873 3.01092 19.7873 3.01092C20.4883 2.91112 21.0892 3.50993 20.989 4.20853C20.989 4.20853 21.1893 8.49996 19.3867 13.8892C17.5841 19.2784 15.6814 20.476 15.6814 20.476C15.2808 21.1747 14.2794 21.1747 13.8788 20.476C12.0762 18.3802 11.1749 15.6856 11.1749 12.8912C8.37086 12.7914 5.66697 11.8932 3.56394 10.0968Z" stroke="#0A0C10" stroke-width="1.5" stroke-linecap="round" stroke-linejoin="round"/>
<path d="M11 13L20 4" stroke="#0A0C10" stroke-width="1.5" stroke-linecap="round" stroke-linejoin="round"/>
</svg>
