<?xml version="1.0" encoding="UTF-8"?>
<svg width="53px" height="53px" viewBox="0 0 53 53" version="1.1" xmlns="http://www.w3.org/2000/svg" xmlns:xlink="http://www.w3.org/1999/xlink">
    <title>Smile</title>
    <g id="Page-1" stroke="none" stroke-width="1" fill="none" fill-rule="evenodd">
        <g id="4a_Home" transform="translate(-400.000000, -483.000000)" fill="#7F808B">
            <g id="Smile" transform="translate(400.000000, 483.000000)">
                <circle id="Oval" cx="17.5" cy="18.5" r="2.5"></circle>
                <circle id="Oval" cx="36.5" cy="18.5" r="2.5"></circle>
                <path d="M26.5,0 C11.8644541,0 0,11.8644541 0,26.5 C0,41.1355459 11.8644541,53 26.5,53 C41.1355459,53 53,41.1355459 53,26.5 C53,11.8644541 41.1355459,0 26.5,0 L26.5,0 Z M26.5,49.3863636 C13.8602104,49.3863636 3.61363636,39.1397896 3.61363636,26.5 C3.61363636,13.8602104 13.8602104,3.61363636 26.5,3.61363636 C39.1397896,3.61363636 49.3863636,13.8602104 49.3863636,26.5 C49.3863636,39.1397896 39.1397896,49.3863636 26.5,49.3863636 L26.5,49.3863636 Z" id="Shape"></path>
                <path d="M27.0001166,42 C20.9445988,41.8116062 15.4012769,38.6730513 12.2773711,33.6641777 C11.7472229,32.8521278 11.9997128,31.7791563 12.841323,31.2676288 C13.6829333,30.7561013 14.7949632,30.9997228 15.3251114,31.8117728 C17.642826,35.9497819 22.125258,38.5286009 27.0001166,38.5286009 C31.8749753,38.5286009 36.3574072,35.9497819 38.6751219,31.8117728 C39.0180675,31.2864684 39.6254105,30.9776004 40.2683706,31.0015163 C40.9113306,31.0254322 41.4922267,31.3784987 41.7922409,31.9277189 C42.0922551,32.4769391 42.0658081,33.1388735 41.7228622,33.6641777 C38.5989564,38.6730513 33.0556345,41.8116062 27.0001166,42 Z" id="Shape"></path>
            </g>
        </g>
    </g>
</svg>