<svg xmlns="http://www.w3.org/2000/svg" width="43.108" height="34.933" viewBox="0 0 43.108 34.933">
  <path fill="rgb(255,255,255)" fill-rule="evenodd" d="M43.1082353 4.14833333C41.90470587 5.895 40.40029411 7.450625 38.67705881 8.70604167c.02735294.38208333.02735294.76416666.02735294 1.14625 0 11.65354166-8.88970588 25.08104166-25.13735294 25.08104166C8.5614706 34.93333333 3.9114706 33.486875 0 30.97604167c.71117647.081875 1.395.10916666 2.13352941.10916666 4.13029412 0 7.93235294-1.391875 10.96852941-3.76625-3.88411764-.081875-7.13911764-2.62-8.26058823-6.11333333.54705882.081875 1.09411765.13645833 1.66852941.13645833.7932353 0 1.58647059-.10916666 2.325-.30020833-4.0482353-.81875-7.08441176-4.36666667-7.08441176-8.65145833V12.28125c1.17617647.655 2.54382352 1.064375 3.9935294 1.11895833C3.36441177 11.81729167 1.80529413 9.11541667 1.80529413 6.05875c0-1.6375.43764706-3.13854167 1.2035294-4.44854167 4.34911766 5.34916667 10.8864706 8.8425 18.21705883 9.22458334-.1367647-.655-.21882353-1.33729167-.21882353-2.01958334C21.00705882 3.95729167 24.94588235 0 29.84205882 0c2.54382353 0 4.8414706 1.064375 6.45529412 2.78375 1.9967647-.38208333 3.91147059-1.11895833 5.60735294-2.12875-.65647059 2.046875-2.05147059 3.76625-3.88411764 4.85791667C39.7985294 5.321875 41.5217647 4.830625 43.10823529 4.14833333z"/>
</svg>
