<?xml version="1.0" encoding="UTF-8"?>
<svg width="68px" height="68px" viewBox="0 0 68 68" version="1.1" xmlns="http://www.w3.org/2000/svg" xmlns:xlink="http://www.w3.org/1999/xlink">
    <title>Group 2</title>
    <g id="Page-1" stroke="none" stroke-width="1" fill="none" fill-rule="evenodd">
        <g id="4b_Menu" transform="translate(-514.000000, -316.000000)">
            <g id="Group-2" transform="translate(514.000000, 316.000000)">
                <polygon id="Star" fill="#1D89F1" points="34 60.9261533 23.4934222 66.3359216 18.1732042 55.7837156 6.49342219 53.9846986 8.39170647 42.320639 0 34 8.39170647 25.679361 6.49342219 14.0153014 18.1732042 12.2162844 23.4934222 1.66407845 34 7.07384673 44.5065778 1.66407845 49.8267958 12.2162844 61.5065778 14.0153014 59.6082935 25.679361 68 34 59.6082935 42.320639 61.5065778 53.9846986 49.8267958 55.7837156 44.5065778 66.3359216"></polygon>
                <g id="Check" transform="translate(17.000000, 24.000000)" fill="#FFFFFF">
                    <path d="M31.5152918,0.484924292 C30.8682095,-0.161641431 29.819935,-0.161641431 29.1728527,0.484924292 L12.6652864,16.9998505 L2.78726474,7.11742476 C2.13423303,6.50865217 1.11659799,6.52661516 0.485438646,7.1580559 C-0.145720698,7.78949665 -0.163675681,8.8075854 0.444825611,9.46090826 L11.4940668,20.5150757 C12.1411491,21.1616414 13.1894236,21.1616414 13.8365059,20.5150757 L31.5152918,2.82840779 C32.1615694,2.18103695 32.1615694,1.13229513 31.5152918,0.484924292 L31.5152918,0.484924292 Z" id="Shape"></path>
                </g>
            </g>
        </g>
    </g>
</svg>